PathFileType	4	(X/Y/Z)	Run_500 02
DataRate	CameraRate	NumFrames	NumMarkers	Units	OrigDataRate	OrigDataStartFrame	OrigNumFrames
120	120	4	42	mm	120	1	128
Frame#	Time	LASI			RASI			LPSI			RPSI			RTH1			RTH2			RTH3			LTH1			LTH2			LTH3			RTB1			RTB2			RTB3			LTB1			LTB2			LTB3			RCAL			RTOE			RMT5			LCAL			LTOE			LMT5			LACR			RACR			CLAV			C7			RUA1			RUA2			RUA3			RLEL			RMEL			LUA1			LUA2			LUA3			LLEL			LMEL			RFAsuperior			RFAradius			RFAulna			LFAsuperior			LFAradius			LFAulna			
		X1	Y1	Z1	X2	Y2	Z2	X3	Y3	Z3	X4	Y4	Z4	X5	Y5	Z5	X6	Y6	Z6	X7	Y7	Z7	X8	Y8	Z8	X9	Y9	Z9	X10	Y10	Z10	X11	Y11	Z11	X12	Y12	Z12	X13	Y13	Z13	X14	Y14	Z14	X15	Y15	Z15	X16	Y16	Z16	X17	Y17	Z17	X18	Y18	Z18	X19	Y19	Z19	X20	Y20	Z20	X21	Y21	Z21	X22	Y22	Z22	X23	Y23	Z23	X24	Y24	Z24	X25	Y25	Z25	X26	Y26	Z26	X27	Y27	Z27	X28	Y28	Z28	X29	Y29	Z29	X30	Y30	Z30	X31	Y31	Z31	X32	Y32	Z32	X33	Y33	Z33	X34	Y34	Z34	X35	Y35	Z35	X36	Y36	Z36	X37	Y37	Z37	X38	Y38	Z38	X39	Y39	Z39	X40	Y40	Z40	X41	Y41	Z41	X42	Y42	Z42	

1	0.1	780.659014	1002.039025	-515.4163160000001	760.144962	1024.318878	-279.88987	617.8704320000001	1052.620592	-443.197742	610.329305	1047.91382	-355.019928	785.845994	845.601505	-223.426244	896.428025	766.229981	-254.442001	883.721077	623.340652	-264.507145	697.585509	857.458374	-564.025004	699.975326	733.253245	-549.047822	578.128104	635.319624	-550.2636	1005.655741	451.090253	-324.939594	974.300485	377.901771	-278.48714	1013.090537	273.510584	-351.271295	414.080112	475.404106	-479.759536	305.573196	508.441922	-531.368458	222.569773	494.860986	-461.960496	931.627068	111.938472	-375.881888	1146.800942	160.322417	-360.06201	1112.884509	123.435356	-273.453081	127.359167	599.014481	-490.793779	60.76997	415.850958	-397.102409	7.855276	424.863282	-474.069679	851.225859	1462.102144	-554.1437120000001	735.670338	1474.774007	-217.360354	865.035988	1416.805041	-325.612446	760.39205	1510.639505	-399.485474	660.1132239999999	1432.657699	-147.005088	640.304466	1366.407734	-127.465352	543.858694	1408.949946	-138.712818	508.189109	1342.418342	-78.88120000000001	479.536304	1318.348605	-156.288242	832.488169	1398.162448	-621.412478	759.55882	1348.024696	-643.9457609999999	823.918901	1314.058377	-671.392245	804.539955	1213.419434	-726.7750590000001	729.155351	1176.039289	-684.618597	556.81361	1283.264405	-48.019506	664.570774	1144.830122	-36.624652	599.166777	1124.094683	-26.334417	864.638526	1215.004324	-684.068947	931.508156	1215.911643	-517.093035	942.3400789999999	1154.067898	-539.030748	
2	0.108333	781.601303	999.009147	-514.433518	759.733421	1020.529974	-278.622039	617.832134	1047.186009	-444.153437	609.312621	1041.966159	-356.061607	782.811555	837.64183	-223.129129	891.6974740000001	756.914914	-253.95648	877.265626	614.933762	-265.123312	701.175648	853.085797	-563.423752	704.581595	729.2396649999999	-549.6748229999999	585.989297	629.4825970000001	-550.101957	998.9189689999999	443.403652	-325.606445	968.026334	369.597831	-278.736309	1010.420167	266.076651	-350.855686	422.739024	477.832457	-480.767269	317.607675	522.274347	-531.354211	233.88341	515.035059	-462.076466	931.897294	102.351572	-375.488174	1146.253256	154.878062	-360.203458	1113.874628	116.708882	-273.817994	147.700341	628.708165	-486.790726	67.201443	445.84253	-403.579277	16.833909	462.603486	-480.635462	851.210287	1458.075154	-553.319343	737.707239	1468.075662	-214.756869	866.020469	1411.570652	-324.794768	761.62426	1507.286961	-397.364974	662.277182	1424.544873	-144.442621	643.305431	1358.419709	-124.780891	545.951409	1399.508203	-136.503586	511.880221	1333.22702	-75.658244	482.966612	1307.834581	-152.600871	829.561298	1395.293414	-620.740458	754.8798870000001	1347.598662	-641.924119	817.902273	1311.449238	-670.690176	794.433577	1210.953415	-725.843302	717.4589	1177.55391	-683.065665	561.987895	1275.431713	-44.921194	672.805173	1139.226646	-33.783609	607.826323	1117.386924	-22.586952	855.159415	1207.077748	-684.769831	926.695649	1198.602033	-519.109907	930.920222	1136.769841	-541.8277849999999	
3	0.116667	782.445352	995.1167799999999	-513.790049	759.532655	1015.650943	-277.445974	617.558531	1040.498474	-444.836639	608.761159	1035.524313	-357.000054	779.4903	830.016992	-223.782998	887.978849	749.460269	-254.521522	871.090789	606.960274	-265.507623	704.609413	847.958126	-562.9519749999999	710.2927979999999	724.160423	-549.888268	595.335456	622.58569	-550.696049	991.150347	434.661369	-325.420058	959.3227879999999	360.450442	-278.655878	1004.422445	257.037204	-349.876951	433.331128	479.68428	-481.942938	332.451719	534.943052	-531.528748	248.607386	533.524405	-462.002464	925.273713	95.840779	-375.04471	1139.677902	143.682961	-361.179723	1107.720611	106.377977	-274.940526	171.228886	655.625218	-481.977253	78.194811	473.170529	-410.853682	31.722332	497.092571	-487.755829	850.4345530000001	1453.187253	-552.918175	739.828433	1460.509877	-211.94767	866.999657	1405.653138	-324.226164	762.862094	1503.171018	-395.264631	664.687664	1415.034208	-141.571888	646.854741	1348.80888	-121.844592	548.429342	1388.165084	-133.591666	516.142744	1322.014878	-71.716859	487.080023	1295.440529	-148.293715	826.11486	1391.677259	-620.127435	750.101239	1346.218858	-639.909682	811.413576	1307.843886	-669.9130740000001	783.479949	1207.97018	-724.758642	705.5277139999999	1178.565803	-681.145167	567.907018	1265.517825	-41.279494	682.4414860000001	1132.239859	-31.516551	618.099346	1108.969083	-19.147659	844.391027	1198.404361	-685.271917	920.8335489999999	1179.859315	-522.329259	918.420937	1118.776719	-546.101285	
4	0.125	783.36293	990.470871	-513.849886	759.439228	1009.837156	-276.182656	617.2013009999999	1032.80209	-445.170144	608.557128	1028.540033	-357.815581	776.436923	823.071493	-225.355264	884.694708	742.847029	-256.123363	864.449144	598.829509	-265.922279	708.011935	842.008225	-562.745762	717.493653	718.143242	-550.041569	606.213479	614.6499710000001	-552.164048	982.357166	424.439407	-325.434409	949.209609	350.219393	-278.995356	994.449608	246.104003	-349.69564	445.837666	480.761087	-483.136843	349.952815	545.743634	-531.845996	266.492777	549.820865	-461.822405	910.834771	92.966643	-375.083695	1126.222576	126.683103	-363.841989	1093.221724	93.25667	-277.158426	197.664631	679.2059410000001	-477.092047	93.455618	497.725135	-418.265525	51.663538	527.75209	-494.871418	849.17654	1447.49864	-552.795387	741.995645	1452.263087	-209.002898	868.056953	1399.147295	-323.773144	764.197691	1498.26561	-393.227645	667.3702060000001	1404.300172	-138.431685	651.01866	1337.730267	-118.733712	551.468355	1375.052171	-129.987506	521.0198779999999	1308.926781	-67.218603	491.97832	1281.285135	-143.610192	822.3358909999999	1387.213045	-619.554654	745.145354	1343.96543	-637.872585	804.467026	1303.122641	-669.015632	771.823695	1204.588089	-723.636701	693.553655	1179.034685	-678.895292	574.646467	1253.66297	-37.241637	693.5742299999999	1124.144589	-29.77825	630.054092	1099.035119	-16.211464	832.455438	1189.37993	-685.593041	913.662608	1159.827795	-526.856733	904.8962299999999	1100.225155	-552.194128	
